:SAMPLES-PER-SECOND 30
:FULLY-SPECIFIED
:DEGREES
185
root  -61.1558 40.1805 6.48228 -136.191 -88.5228 131.901
RightUpLeg  -9.03471 -9.99162 -6.75992
RightLeg  10.086 12.9241 2.51489
RightFoot  3.01709 -0.58148 4.77717
RightToes  3.49245e-010 0 -3.6325e-017
Spine  10.983 -1.35163 5.38771
Spine1  11.742 0.702212 -5.74199
HEad  6.12735 -8.35485 2.19495
LeftShoulder1  1.10214 0.0321264 -25.539
LeftArm  -6.82679 -41.7117 -40.398
LeftForeArm  -14.1772 -39.5482 -10.0582
LeftHand  -0.0359273 4.71937 2.11246
RightShoulder  0.537156 -1.26801 17.6145
RightArm  -7.21394 44.8259 45.4289
RightForeArm  -23.8766 34.3602 8.9176
RightHand  0.0878757 2.82792 1.02423
LeftUpLeg  -9.16243 -4.36428 2.05509
LeftLeg  14.836 -7.23206 -1.32628
LeftFoot  -2.53576 0.0319491 -0.218888
LeftToes  -2.21735e-009 9.83027e-011 -4.04511e-011
186
root  -61.0033 40.1808 7.08394 -163.364 -86.1866 158.888
RightUpLeg  -8.94917 -9.65647 -7.36253
RightLeg  8.53464 15.3207 1.886
RightFoot  3.99946 -0.801225 6.14092
RightToes  3.49245e-010 0 -3.6325e-017
Spine  10.848 -0.878823 5.85746
Spine1  12.5196 1.64124 -6.98852
HEad  6.78908 -10.2553 2.94331
LeftShoulder1  1.14525 -0.13844 -25.2408
LeftArm  -7.35046 -40.2691 -40.3698
LeftForeArm  -13.8568 -42.412 -11.071
LeftHand  -0.0458304 4.02361 2.18879
RightShoulder  0.398444 -1.87843 18.2929
RightArm  -8.86065 43.5563 44.3252
RightForeArm  -22.6677 37.9925 9.98353
RightHand  0.108459 2.57261 1.38337
LeftUpLeg  -8.71959 -0.846469 1.0125
LeftLeg  14.4231 -7.90645 -1.48545
LeftFoot  -2.09323 -0.0345252 0.581773
LeftToes  -2.21735e-009 9.83027e-011 -4.04511e-011
187
root  -60.8195 40.1979 7.6745 -168.079 -83.973 163.693
RightUpLeg  -8.77409 -9.52093 -7.79885
RightLeg  6.03749 17.5082 0.998772
RightFoot  5.19946 -1.11199 7.87437
RightToes  3.49245e-010 0 -3.6325e-017
Spine  10.7249 -0.725971 5.12019
Spine1  13.0785 1.80932 -7.15836
HEad  6.35888 -10.7542 3.92747
LeftShoulder1  1.07572 0.044261 -24.8792
LeftArm  -9.2347 -37.7615 -40.0873
LeftForeArm  -12.6552 -46.1027 -12.4643
LeftHand  -0.0436036 4.08663 2.03647
RightShoulder  0.303255 -2.3031 19.1965
RightArm  -9.70661 42.501 44.0067
RightForeArm  -20.7844 41.7841 11.218
RightHand  0.132336 2.31472 1.80248
LeftUpLeg  -8.5863 2.90331 0.276126
LeftLeg  13.7471 -9.00116 -1.92178
LeftFoot  -1.52489 -0.0956804 1.22273
LeftToes  -2.21735e-009 9.83027e-011 -4.04511e-011
188
root  -60.6335 40.19 8.25075 -169.893 -81.8281 165.997
RightUpLeg  -9.03151 -9.40294 -8.25557
RightLeg  3.55008 19.3247 0.0268118
RightFoot  5.26086 -1.48722 10.4486
RightToes  3.49245e-010 0 -3.6325e-017
Spine  10.8832 -0.707288 3.38399
Spine1  12.4106 1.37496 -6.31092
HEad  6.47915 -10.2602 3.508
LeftShoulder1  0.954444 0.480419 -25.3858
LeftArm  -10.2962 -35.1066 -38.9853
LeftForeArm  -11.7137 -49.5032 -13.9974
LeftHand  -0.0521613 3.72242 2.37145
RightShoulder  0.30464 -2.31071 19.5269
RightArm  -10.0163 40.457 44.2605
RightForeArm  -19.0462 46.1358 12.8654
RightHand  0.0552687 2.0595 0.691179
LeftUpLeg  -9.09628 5.30613 -0.387924
LeftLeg  13.3968 -8.9497 -2.37232
LeftFoot  -1.01012 -0.139291 1.60995
LeftToes  -2.21735e-009 9.83027e-011 -4.04511e-011
189
root  -60.5089 40.1593 8.83405 -172.382 -79.0174 168.146
RightUpLeg  -8.78482 -9.53539 -8.77971
RightLeg  2.21862 20.085 -0.508102
RightFoot  3.54828 -1.64672 12.7431
RightToes  3.49245e-010 0 -3.6325e-017
Spine  11.2001 -0.589657 2.01032
Spine1  12.4503 1.15774 -5.50796
HEad  6.4814 -10.1081 3.3131
LeftShoulder1  0.820487 0.957033 -26.0211
LeftArm  -11.7203 -31.8601 -37.8233
LeftForeArm  -8.78586 -53.5106 -15.9796
LeftHand  -0.0495765 4.12819 2.6011
RightShoulder  0.289507 -2.37922 19.8361
RightArm  -10.0986 38.4372 44.9157
RightForeArm  -16.8346 50.3256 14.7556
RightHand  -0.00808245 1.82087 -0.287574
LeftUpLeg  -8.72059 6.36873 -0.986739
LeftLeg  13.201 -6.93753 -2.36109
LeftFoot  -0.999392 -0.208019 2.36569
LeftToes  -2.21735e-009 9.83027e-011 -4.04511e-011
190
root  -60.3751 40.1357 9.38546 -175.869 -76.4737 171.695
RightUpLeg  -9.30158 -9.48683 -8.76142
RightLeg  3.41589 14.6045 -0.109793
RightFoot  1.6976 -1.48468 12.992
RightToes  3.49245e-010 0 -3.6325e-017
Spine  10.945 -0.510858 2.41396
Spine1  12.7478 1.41095 -5.95473
HEad  6.48329 -10.3876 3.00927
LeftShoulder1  0.834756 0.903088 -25.9058
LeftArm  -12.4054 -28.9186 -37.5461
LeftForeArm  -7.78719 -56.8804 -18.1727
LeftHand  -0.0678262 3.78085 3.68552
RightShoulder  0.160436 -2.88969 20.8904
RightArm  -10.5013 35.903 44.6917
RightForeArm  -14.0067 54.7431 17.158
RightHand  0.0036501 1.47613 -0.073065
LeftUpLeg  -9.07995 7.13436 -1.03946
LeftLeg  13.5292 -5.03289 -2.24133
LeftFoot  -1.06017 -0.286992 3.26137
LeftToes  -2.21735e-009 9.83027e-011 -4.04511e-011
191
root  -60.2164 40.1345 9.85429 179.623 -73.8225 176.841
RightUpLeg  -10.6382 -9.10831 -7.78414
RightLeg  7.52628 5.48786 0.446453
RightFoot  -0.567767 -1.00271 10.5687
RightToes  3.49245e-010 0 -3.6325e-017
Spine  9.96248 -0.42868 2.86802
Spine1  13.2765 1.4094 -5.58462
HEad  6.48609 -10.9961 3.30559
LeftShoulder1  0.788799 1.05973 -26.1275
LeftArm  -13.3404 -25.7297 -37.2005
LeftForeArm  -5.23106 -60.1904 -20.6552
LeftHand  -0.0788227 3.61729 3.92549
RightShoulder  0.0617385 -3.261 21.7919
RightArm  -10.3678 33.4838 44.5944
RightForeArm  -11.6173 58.58 19.8274
RightHand  -0.0288261 1.3206 -0.635216
LeftUpLeg  -10.1988 8.29338 -0.26832
LeftLeg  14.2616 -3.45214 -2.04971
LeftFoot  -1.25059 -0.327099 3.79034
LeftToes  -2.21735e-009 9.83027e-011 -4.04511e-011
192
root  -60.0726 40.1473 10.2797 177.002 -70.9656 179.652
RightUpLeg  -11.4468 -10.3063 -6.76678
RightLeg  13.0589 -0.393451 -0.0440269
RightFoot  -2.06457 -0.655904 7.89705
RightToes  3.49245e-010 0 -3.6325e-017
Spine  9.70541 -0.529342 2.36382
Spine1  13.0265 0.883916 -4.47712
HEad  6.46839 -10.3914 3.06759
LeftShoulder1  0.601464 1.67395 -26.6695
LeftArm  -13.9706 -22.3545 -36.0467
LeftForeArm  -2.72346 -63.0078 -23.3258
LeftHand  -0.113139 2.93211 4.69293
RightShoulder  0.0706823 -3.22302 21.9719
RightArm  -9.91122 30.4015 45.8888
RightForeArm  -8.17227 61.954 22.6914
RightHand  -0.0480634 0.790429 -0.975153
LeftUpLeg  -10.5462 9.19166 0.313172
LeftLeg  14.4811 -1.52138 -1.67541
LeftFoot  -1.31803 -0.356567 4.15333
LeftToes  -2.21735e-009 9.83027e-011 -4.04511e-011
193
root  -59.9912 40.1883 10.6923 177.999 -67.7094 177.871
RightUpLeg  -11.38 -12.4186 -7.19811
RightLeg  19.392 -1.98541 -0.973716
RightFoot  -3.60408 -0.416733 5.81258
RightToes  3.49245e-010 0 -3.6325e-017
Spine  10.2523 -0.418746 1.1072
Spine1  12.6904 0.801757 -4.16031
HEad  6.27744 -10.8882 3.51138
LeftShoulder1  0.536458 1.86026 -26.501
LeftArm  -14.6916 -18.4225 -35.2836
LeftForeArm  1.65548 -66.107 -26.8457
LeftHand  -0.0592169 2.93073 2.16178
RightShoulder  -0.0876501 -3.77708 23.1244
RightArm  -9.23751 27.6032 46.3406
RightForeArm  -3.99836 64.9332 25.8847
RightHand  0.000221114 0.623534 -0.0684579
LeftUpLeg  -9.18101 8.72128 -0.309142
LeftLeg  13.1658 2.19326 -1.07339
LeftFoot  -0.900391 -0.377056 4.18551
LeftToes  -2.21735e-009 9.83027e-011 -4.04511e-011
194
root  -59.9426 40.1857 11.0833 178.184 -64.3119 177.26
RightUpLeg  -10.8696 -14.0076 -7.8265
RightLeg  24.7504 -2.00052 -1.2346
RightFoot  -5.26749 -0.300646 4.99576
RightToes  3.49245e-010 0 -3.6325e-017
Spine  9.86577 -0.409822 -0.020489
Spine1  12.9033 0.442602 -3.34459
HEad  6.4017 -11.6131 3.55073
LeftShoulder1  0.410581 2.28264 -27.4398
LeftArm  -14.9406 -15.1904 -33.8386
LeftForeArm  4.82123 -68.4795 -30.4642
LeftHand  -0.0563114 2.78631 1.89002
RightShoulder  -0.0856936 -3.76951 22.7394
RightArm  -8.50196 24.1368 46.9027
RightForeArm  0.673439 67.957 30.0618
RightHand  -0.0193914 0.494424 -0.432818
LeftUpLeg  -8.53308 8.51992 -0.55727
LeftLeg  12.684 5.75212 -0.62875
LeftFoot  -1.0406 -0.341268 3.85545
LeftToes  -2.21735e-009 9.83027e-011 -4.04511e-011
